# xmcd
#
# Track frame offsets: 
#        150
#        20030
#        47788
#        69873
#        97120
#        109783
#        118925
#        136071
#        146446
#        162707
#
# Disc length: 2238 seconds
#
# Revision: 0
# Processed by: cddbd v1.5.2PL0 Copyright (c) Steve Scherf et al.
# Submitted via: ExactAudioCopy v0.99pb4
#
DISCID=9008bc0a
DTITLE=Ben Rice - Songs from 2005-2010
DYEAR=2010
DGENRE=Blues
TTITLE0=Done me Wrong
TTITLE1=Run Around
TTITLE2=Tell Me Baby
TTITLE3=No Love
TTITLE4=Hitchhiker
TTITLE5=Slide Riff
TTITLE6=Last Year
TTITLE7=Don't Slow Me
TTITLE8=Shake It
TTITLE9=Slide
EXTD=
EXTT0=
EXTT1=
EXTT2=
EXTT3=
EXTT4=
EXTT5=
EXTT6=
EXTT7=
EXTT8=
EXTT9=
PLAYORDER=
